<svg width="360" height="1080" viewBox="0 0 360 1080" fill="none" xmlns="http://www.w3.org/2000/svg">
  <defs>
    <filter id="soften" x="-20%" y="-20%" width="140%" height="140%">
      <feGaussianBlur stdDeviation="0.35"/>
    </filter>
    <linearGradient id="leaf" x1="0" y1="0" x2="1" y2="1">
      <stop offset="0" stop-color="#8FA28B" stop-opacity=".50"/>
      <stop offset="1" stop-color="#425A45" stop-opacity=".25"/>
    </linearGradient>
    <linearGradient id="stem" x1="0" y1="0" x2="1" y2="1">
      <stop offset="0" stop-color="#8B7C61" stop-opacity=".30"/>
      <stop offset="1" stop-color="#5F6F56" stop-opacity=".45"/>
    </linearGradient>
    <style>
      .stem{stroke:url(#stem);stroke-width:2.1;stroke-linecap:round;filter:url(#soften)}
      .twig{stroke:#7d8a69;stroke-width:1.15;stroke-linecap:round;opacity:.36}
      .leaf{fill:url(#leaf);opacity:.72;filter:url(#soften)}
      .leaf2{fill:#AEB9A0;opacity:.34;filter:url(#soften)}
      .bud{fill:#C8B98E;opacity:.45}
    </style>
  </defs>

  <!-- top branch -->
  <g transform="translate(-12 20) rotate(-5 160 220)">
    <path class="stem" d="M18 270 C70 215, 106 150, 168 82 C205 42, 245 18, 318 2"/>
    <path class="twig" d="M82 200 C58 170 46 132 38 92"/>
    <path class="twig" d="M123 150 C118 105 124 66 148 28"/>
    <path class="twig" d="M176 78 C196 112 224 134 258 150"/>
    <path class="twig" d="M223 36 C232 66 252 91 286 108"/>
    <ellipse class="leaf" cx="54" cy="221" rx="28" ry="15" transform="rotate(-36 54 221)"/>
    <ellipse class="leaf2" cx="84" cy="190" rx="32" ry="18" transform="rotate(34 84 190)"/>
    <ellipse class="leaf" cx="38" cy="96" rx="25" ry="14" transform="rotate(-68 38 96)"/>
    <ellipse class="leaf" cx="119" cy="143" rx="28" ry="15" transform="rotate(-18 119 143)"/>
    <ellipse class="leaf2" cx="145" cy="44" rx="25" ry="14" transform="rotate(30 145 44)"/>
    <ellipse class="leaf" cx="182" cy="82" rx="35" ry="18" transform="rotate(42 182 82)"/>
    <ellipse class="leaf2" cx="230" cy="130" rx="24" ry="13" transform="rotate(20 230 130)"/>
    <ellipse class="leaf" cx="263" cy="58" rx="33" ry="17" transform="rotate(-22 263 58)"/>
    <ellipse class="leaf2" cx="302" cy="14" rx="26" ry="14" transform="rotate(30 302 14)"/>
    <circle class="bud" cx="71" cy="130" r="4"/>
    <circle class="bud" cx="96" cy="114" r="3"/>
    <circle class="bud" cx="250" cy="116" r="3.5"/>
  </g>

  <!-- middle branch -->
  <g transform="translate(-42 300) rotate(8 160 250)">
    <path class="stem" d="M8 308 C84 246, 120 182, 170 126 C220 70, 265 32, 340 8"/>
    <path class="twig" d="M62 260 C42 224 32 188 25 145"/>
    <path class="twig" d="M112 202 C102 154 104 122 124 80"/>
    <path class="twig" d="M170 126 C182 164 205 193 240 212"/>
    <path class="twig" d="M238 52 C250 94 279 128 322 146"/>
    <ellipse class="leaf" cx="42" cy="276" rx="33" ry="18" transform="rotate(-35 42 276)"/>
    <ellipse class="leaf2" cx="74" cy="247" rx="25" ry="14" transform="rotate(35 74 247)"/>
    <ellipse class="leaf" cx="28" cy="148" rx="30" ry="16" transform="rotate(-72 28 148)"/>
    <ellipse class="leaf" cx="118" cy="193" rx="37" ry="19" transform="rotate(-15 118 193)"/>
    <ellipse class="leaf2" cx="124" cy="82" rx="28" ry="15" transform="rotate(28 124 82)"/>
    <ellipse class="leaf" cx="179" cy="130" rx="32" ry="17" transform="rotate(43 179 130)"/>
    <ellipse class="leaf2" cx="234" cy="207" rx="27" ry="14" transform="rotate(18 234 207)"/>
    <ellipse class="leaf" cx="254" cy="62" rx="36" ry="18" transform="rotate(-24 254 62)"/>
    <ellipse class="leaf2" cx="318" cy="23" rx="32" ry="16" transform="rotate(28 318 23)"/>
    <circle class="bud" cx="93" cy="164" r="4"/>
    <circle class="bud" cx="142" cy="104" r="3.5"/>
    <circle class="bud" cx="286" cy="126" r="3.5"/>
  </g>

  <!-- bottom branch -->
  <g transform="translate(-15 680) rotate(-12 170 220)">
    <path class="stem" d="M12 330 C76 268, 110 205, 158 145 C210 82, 260 36, 352 4"/>
    <path class="twig" d="M68 274 C50 230 45 196 48 150"/>
    <path class="twig" d="M120 202 C107 158 109 120 132 74"/>
    <path class="twig" d="M164 140 C189 172 215 195 252 210"/>
    <path class="twig" d="M252 38 C270 80 298 110 342 125"/>
    <ellipse class="leaf" cx="46" cy="292" rx="35" ry="19" transform="rotate(-32 46 292)"/>
    <ellipse class="leaf2" cx="76" cy="260" rx="27" ry="15" transform="rotate(36 76 260)"/>
    <ellipse class="leaf" cx="48" cy="151" rx="30" ry="16" transform="rotate(-82 48 151)"/>
    <ellipse class="leaf" cx="118" cy="200" rx="36" ry="19" transform="rotate(-10 118 200)"/>
    <ellipse class="leaf2" cx="136" cy="80" rx="28" ry="15" transform="rotate(29 136 80)"/>
    <ellipse class="leaf" cx="170" cy="145" rx="34" ry="18" transform="rotate(44 170 145)"/>
    <ellipse class="leaf2" cx="244" cy="207" rx="25" ry="14" transform="rotate(19 244 207)"/>
    <ellipse class="leaf" cx="270" cy="52" rx="38" ry="19" transform="rotate(-22 270 52)"/>
    <ellipse class="leaf2" cx="332" cy="16" rx="29" ry="15" transform="rotate(28 332 16)"/>
    <circle class="bud" cx="92" cy="185" r="4"/>
    <circle class="bud" cx="145" cy="119" r="3.5"/>
    <circle class="bud" cx="302" cy="112" r="3.5"/>
  </g>
</svg>