<?xml version="1.0" encoding="utf-8"?><!-- Uploaded to: SVG Repo, www.svgrepo.com, Generator: SVG Repo Mixer Tools -->
<svg version="1.1" id="designs" xmlns="http://www.w3.org/2000/svg" xmlns:xlink="http://www.w3.org/1999/xlink" 
	 width="800px" height="800px" viewBox="0 0 32 32" xml:space="preserve">
<style type="text/css">
	.sketchy_een{fill:#111918;}
</style>
<path class="sketchy_een" d="M22.199,8.489c0.009-0.007,0.018-0.014,0.028-0.021c0,0,0,0,0,0
	C22.217,8.475,22.208,8.482,22.199,8.489z M1.198,13.695c0.003-0.024,0.007-0.048,0.01-0.073c0.003-0.019,0.005-0.038,0.008-0.057
	C1.21,13.609,1.204,13.652,1.198,13.695z M1.276,13.12c0.001-0.008,0.003-0.016,0.004-0.024c0.001-0.007,0.002-0.014,0.003-0.021
	C1.281,13.09,1.278,13.105,1.276,13.12z M30.55,20.857c-0.003,0.025-0.009,0.049-0.012,0.073c-0.005,0.04-0.01,0.08-0.015,0.12
	C30.533,20.986,30.541,20.921,30.55,20.857z M30.999,14.026c0.008,0.76-0.02,1.515-0.076,2.273
	c-0.058,0.768-0.115,1.538-0.146,2.308c-0.033,0.779-0.133,1.552-0.238,2.323c-0.067,0.485-0.156,0.965-0.237,1.447
	c-0.078,0.466-0.135,0.934-0.211,1.4c-0.037,0.228-0.094,0.45-0.146,0.675c-0.051,0.209-0.094,0.419-0.156,0.624
	c-0.06,0.205-0.146,0.404-0.226,0.6c-0.191,0.466-0.456,0.873-0.858,1.191c-0.101,0.101-0.22,0.17-0.359,0.209
	c-0.144,0.039-0.289,0.039-0.433,0c-0.161-0.043-0.295-0.148-0.418-0.282c-0.889-0.382-1.721-0.856-2.546-1.359
	c-0.485-0.296-0.973-0.588-1.45-0.897c-0.236-0.153-0.462-0.322-0.698-0.475c-0.216-0.14-0.403-0.312-0.606-0.47
	c-0.23-0.179-0.445-0.377-0.666-0.567c-0.257-0.222-0.526-0.433-0.784-0.655c-0.261-0.226-0.513-0.462-0.756-0.708
	c-0.198-0.2-0.392-0.415-0.611-0.594c-0.012,0.002-0.023,0.007-0.035,0.009c-0.333,0.049-0.667,0.109-1.004,0.127
	c-0.702,0.035-1.406,0.057-2.109,0.049c-0.392-0.006-0.784-0.014-1.176-0.023c-0.372-0.012-0.743-0.057-1.111-0.099
	c-0.25-0.029-0.493-0.06-0.733-0.131c-0.142-0.041-0.287-0.074-0.433-0.105c-0.138-0.031-0.278-0.063-0.416-0.098
	c-0.033,0.073-0.073,0.145-0.129,0.208c-0.086,0.097-0.172,0.197-0.255,0.294c-0.252,0.287-0.501,0.573-0.774,0.838
	c-0.269,0.263-0.56,0.497-0.856,0.729c-0.632,0.489-1.267,0.977-1.92,1.439c-0.595,0.419-1.259,0.743-1.903,1.08
	c-0.702,0.368-1.408,0.733-2.111,1.096c-0.096,0.05-0.198,0.078-0.301,0.09c-0.141,0.052-0.293,0.075-0.443,0.025
	c-0.203-0.068-0.423-0.135-0.604-0.252c-0.203-0.129-0.343-0.283-0.476-0.484c-0.191-0.294-0.318-0.632-0.45-0.955
	c-0.142-0.345-0.267-0.7-0.357-1.063c-0.09-0.368-0.164-0.739-0.238-1.111c-0.07-0.365-0.156-0.723-0.222-1.088
	c-0.07-0.396-0.109-0.797-0.146-1.197c-0.068-0.725-0.097-1.452-0.133-2.18c-0.037-0.749-0.053-1.501-0.035-2.25
	c0.019-0.804,0.096-1.598,0.201-2.394c0.024-0.176,0.048-0.352,0.071-0.528c0.097-0.754,0.197-1.505,0.332-2.253
	c0.117-0.643,0.287-1.281,0.482-1.907c0.193-0.624,0.376-1.25,0.62-1.856c0.131-0.326,0.242-0.659,0.406-0.971
	C3.195,5.965,3.267,5.82,3.337,5.674c0.072-0.15,0.162-0.263,0.265-0.396C3.699,5.155,3.873,5.096,4.036,5.07
	c0.082-0.066,0.176-0.118,0.279-0.146c0.068-0.019,0.143-0.029,0.22-0.029c0.136,0,0.276,0.033,0.38,0.107
	C5.06,5.103,5.202,5.209,5.349,5.308c0.341,0.234,0.69,0.456,1.027,0.694c0.316,0.224,0.626,0.456,0.938,0.686
	c0.304,0.222,0.604,0.45,0.909,0.673c0.304,0.222,0.618,0.431,0.92,0.655c0.341,0.253,0.692,0.509,1,0.801
	c0.3,0.283,0.587,0.575,0.868,0.877c0.261,0.279,0.521,0.561,0.788,0.834c0.133,0.136,0.265,0.273,0.42,0.418
	c0.421-0.187,0.85-0.352,1.308-0.431c0.378-0.066,0.76-0.117,1.144-0.154c0.594-0.057,1.192-0.091,1.79-0.091
	c0.112,0,0.225,0.001,0.337,0.004c0.688,0.016,1.376,0.062,2.049,0.207c0.29,0.061,0.603,0.14,0.888,0.265
	c0.1-0.109,0.194-0.223,0.297-0.33c0.213-0.222,0.423-0.444,0.643-0.659c0.487-0.468,1.017-0.877,1.552-1.288
	c0.81-0.623,1.635-1.23,2.508-1.759c0.912-0.554,1.893-0.981,2.889-1.355c0.06-0.023,0.127-0.033,0.195-0.033
	c0.056,0,0.112,0.012,0.167,0.024c0.021-0.015,0.035-0.038,0.057-0.051c0.121-0.071,0.254-0.104,0.387-0.104
	c0.27,0,0.535,0.138,0.677,0.383c0.155,0.262,0.269,0.54,0.386,0.819c0.187,0.439,0.375,0.879,0.55,1.323
	c0.16,0.411,0.232,0.842,0.312,1.273c0.08,0.425,0.212,0.836,0.302,1.259c0.103,0.474,0.162,0.965,0.205,1.447
	C30.932,12.472,30.991,13.248,30.999,14.026z M11.206,20.085c-0.005-0.014-0.017-0.029-0.021-0.042
	c-0.008-0.028-0.001-0.058-0.006-0.087c-0.107-0.133-0.159-0.28-0.175-0.454c-0.004-0.051-0.008-0.099-0.012-0.15
	c-0.003-0.034-0.001-0.069-0.003-0.104c-0.262,0.16-0.523,0.322-0.792,0.47c-0.593,0.324-1.23,0.571-1.854,0.825
	c-0.187,0.074-0.446,0.016-0.612-0.08c-0.177-0.105-0.31-0.277-0.365-0.476c-0.057-0.205-0.027-0.427,0.08-0.612
	c0.113-0.191,0.273-0.287,0.474-0.365c0.432-0.164,0.868-0.318,1.296-0.486c0.293-0.14,0.584-0.292,0.86-0.462
	c0.275-0.17,0.53-0.368,0.809-0.53c0.03-0.018,0.066-0.013,0.097-0.026c-0.001-0.206,0.001-0.412,0.003-0.619
	c-0.073,0.019-0.144,0.045-0.222,0.044c-0.778-0.014-1.556,0.041-2.334,0.043c-0.485,0-0.889-0.406-0.889-0.891
	c0-0.48,0.404-0.895,0.889-0.889C8.922,15.2,9.413,15.212,9.904,15.2c0.289-0.008,0.573-0.031,0.86-0.053
	c0.016-0.001,0.033-0.002,0.049-0.002c0.078,0,0.149,0.029,0.221,0.052c0.012-0.195,0.024-0.391,0.036-0.586
	c-0.195,0.047-0.406,0.029-0.583-0.084c-0.495-0.318-1.003-0.623-1.538-0.869c-0.277-0.111-0.558-0.206-0.839-0.303
	c-0.437-0.152-0.723-0.579-0.595-1.047c0.097-0.348,0.45-0.635,0.817-0.635c0.077,0,0.155,0.013,0.23,0.04
	c0.659,0.238,1.3,0.497,1.893,0.87c0.244,0.154,0.487,0.309,0.728,0.467c0.03-0.298,0.07-0.594,0.112-0.89
	c-0.024-0.031-0.058-0.052-0.077-0.088c-0.027-0.052-0.057-0.1-0.09-0.147c-0.367-0.441-0.785-0.848-1.181-1.263
	C9.535,10.232,9.1,9.831,8.63,9.46C8.304,9.214,7.973,8.976,7.641,8.739C7.283,8.482,6.934,8.211,6.573,7.956
	C6.175,7.671,5.774,7.39,5.364,7.123c-0.185-0.121-0.38-0.222-0.567-0.339C4.723,6.738,4.651,6.688,4.578,6.64
	C4.483,6.813,4.398,6.992,4.32,7.17C3.986,7.998,3.728,8.855,3.479,9.712c-0.709,2.457-1.007,5.07-0.98,7.623
	c0.002,0.173,0.005,0.346,0.009,0.518c0.03,1.097,0.093,2.203,0.222,3.295c0.041,0.256,0.095,0.511,0.142,0.766
	c0.062,0.318,0.119,0.636,0.185,0.951c0.06,0.298,0.129,0.597,0.214,0.889c0.061,0.203,0.136,0.401,0.217,0.597
	c0.104,0.24,0.212,0.476,0.353,0.696c0.013,0.004,0.026,0.008,0.038,0.013c0.49-0.236,0.986-0.461,1.481-0.691
	c0.257-0.121,0.511-0.252,0.766-0.378c0.25-0.125,0.501-0.246,0.745-0.386c0.495-0.283,0.961-0.599,1.417-0.942
	c0.429-0.319,0.859-0.636,1.285-0.961C10.179,21.22,10.697,20.662,11.206,20.085z M18.537,19.614
	c0.257-0.038,0.506-0.085,0.749-0.175c0.037-0.017,0.074-0.035,0.11-0.052c0.006-0.003,0.013-0.004,0.019-0.007
	c0.105-1.107,0.123-2.225,0.116-3.333c-0.004-0.616,0.016-1.23-0.025-1.844c-0.042-0.616-0.11-1.23-0.17-1.846
	c-0.058-0.031-0.119-0.058-0.17-0.103c-0.039-0.023-0.081-0.043-0.123-0.063c-0.383-0.142-0.786-0.214-1.187-0.272
	c-0.561-0.057-1.125-0.064-1.688-0.062c-0.558,0-1.112,0.023-1.668,0.079c-0.468,0.072-0.925,0.176-1.368,0.348
	c-0.116,0.053-0.23,0.111-0.344,0.168c-0.047,0.294-0.093,0.588-0.134,0.883c-0.072,0.604-0.11,1.21-0.152,1.815
	c-0.035,0.546-0.076,1.092-0.084,1.64c-0.008,0.524-0.018,1.049-0.006,1.573c0.006,0.281,0.007,0.563,0.022,0.844
	c0.452,0.176,0.928,0.325,1.406,0.398c0.829,0.104,1.664,0.146,2.5,0.135c0.413-0.006,0.825-0.027,1.238-0.051
	C17.901,19.671,18.22,19.65,18.537,19.614z M29.538,13.579c-0.014-0.386-0.055-0.77-0.092-1.156
	c-0.031-0.357-0.053-0.713-0.095-1.067c-0.039-0.291-0.078-0.583-0.15-0.869c-0.082-0.326-0.177-0.649-0.232-0.981
	c-0.055-0.322-0.099-0.649-0.185-0.965c-0.073-0.265-0.186-0.521-0.295-0.775c-0.105-0.239-0.222-0.473-0.335-0.711
	c-0.033-0.069-0.071-0.135-0.103-0.204c-0.005,0.002-0.008,0.005-0.012,0.006c-0.374,0.136-0.746,0.27-1.116,0.418
	c-0.365,0.158-0.724,0.323-1.073,0.514c-0.415,0.228-0.815,0.485-1.205,0.751c-0.688,0.467-1.36,0.958-2.02,1.463
	c-0.365,0.289-0.712,0.596-1.048,0.92c-0.289,0.277-0.573,0.562-0.833,0.869c0.061,0.113,0.102,0.234,0.113,0.372
	c0.008,0.105,0.016,0.211,0.023,0.316c0.01,0.141,0.018,0.283,0.026,0.424c0.152-0.109,0.302-0.222,0.46-0.32
	c0.212-0.131,0.419-0.279,0.639-0.394c0.29-0.154,0.581-0.308,0.877-0.454c0.135-0.068,0.272-0.11,0.415-0.11
	c0.066,0,0.133,0.009,0.201,0.028c0.201,0.055,0.374,0.189,0.48,0.368c0.207,0.353,0.105,0.907-0.289,1.096
	c-0.296,0.142-0.593,0.289-0.887,0.435c-0.224,0.109-0.437,0.248-0.653,0.372c-0.191,0.109-0.374,0.24-0.556,0.363
	c-0.178,0.122-0.355,0.243-0.53,0.371c-0.006,0.005-0.012,0.01-0.018,0.015c-0.008,0.007-0.017,0.011-0.025,0.018
	c0.004,0.156,0.001,0.313,0.004,0.469c0.836,0.015,1.671,0.049,2.507,0.036c0.444-0.008,0.815,0.376,0.815,0.815
	c0,0.419-0.37,0.844-0.815,0.813c-0.832-0.059-1.672-0.015-2.505-0.004c-0.005,0.256-0.019,0.511-0.028,0.767
	c0.08,0.037,0.155,0.087,0.231,0.148c0.377,0.26,0.776,0.459,1.192,0.645c0.336,0.138,0.677,0.269,1.019,0.396
	c0.185,0.068,0.337,0.162,0.439,0.337c0.099,0.17,0.127,0.376,0.074,0.565c-0.051,0.185-0.174,0.343-0.337,0.441
	c-0.156,0.092-0.39,0.14-0.565,0.074c-0.507-0.193-1.006-0.407-1.499-0.632c-0.215-0.097-0.428-0.201-0.635-0.314
	c-0.011,0.157-0.015,0.314-0.036,0.47c-0.027,0.202-0.062,0.402-0.095,0.603c0.377,0.414,0.796,0.789,1.226,1.14
	c0.51,0.416,0.998,0.857,1.513,1.266c0.661,0.481,1.365,0.902,2.066,1.321c0.702,0.419,1.421,0.797,2.166,1.132
	c0.077,0.032,0.154,0.064,0.231,0.097c0.059-0.096,0.117-0.193,0.166-0.295c0.136-0.349,0.236-0.707,0.337-1.069
	c0.115-0.419,0.203-0.85,0.277-1.277c0.074-0.431,0.156-0.858,0.242-1.287c0.074-0.369,0.131-0.739,0.183-1.113
	c0.088-0.729,0.139-1.459,0.186-2.192c0.049-0.743,0.101-1.484,0.152-2.226C29.579,15.074,29.566,14.326,29.538,13.579z"/>
</svg>