<?xml version="1.0" encoding="iso-8859-1"?>
<!-- Uploaded to: SVG Repo, www.svgrepo.com, Generator: SVG Repo Mixer Tools -->
<svg fill="#000000" height="800px" width="800px" version="1.1" id="Layer_1" xmlns="http://www.w3.org/2000/svg" xmlns:xlink="http://www.w3.org/1999/xlink" 
	 viewBox="0 0 512 512" xml:space="preserve">
<g>
	<g>
		<path d="M509.541,371.591c-4.611-10.364-12.924-18.453-23.409-22.779l-29.959-12.361c-40.842-16.85-83.476-29.983-126.718-39.033
			c-13.787-2.886-26.129-9.878-35.693-20.221C224.098,201.846,142.174,140.489,50.269,94.832
			c-8.545-4.244-19.001-1.115-23.808,7.126C5.832,137.322-3.007,177.555,0.902,218.308c0.037,0.387,0.107,0.766,0.198,1.137
			l-0.004,0.001c3.437,13.947,11.358,23.906,20.53,35.438c19.014,23.906,45.054,56.647,45.531,153.537
			c0.027,5.865,4.814,10.637,10.668,10.637l12.508-0.001c5.881,0,10.665-4.788,10.665-10.675V303.505
			c0-4.263,1.468-7.438,4.486-9.708c4.906-3.689,13.734-4.704,21.464-2.469l5.702,1.648c35.84,26.911,67.618,59.154,94.126,95.804
			c13.713,18.958,35.868,30.277,59.266,30.277h114.725c33.03,0,83.174-7.596,86.609-8.122c8.893-1.126,16.52-6.239,20.94-14.045
			C512.757,389.049,513.204,379.828,509.541,371.591z M282.148,287.936c11.806,12.769,27.044,21.402,44.066,24.965
			c9.275,1.941,18.52,4.086,27.726,6.408c-27.962,9.923-67.293,7.462-137.125-82.854c-9.301-12.029-18.14-23.328-26.504-33.881
			C222.911,228.552,253.583,257.039,282.148,287.936z M85.181,403.241l-2.256,0.001c-0.017-1.213-0.041-2.407-0.066-3.601h2.322
			V403.241z M95.979,281.155c-7.064,5.31-10.798,13.04-10.798,22.35v80.318h-2.906C77.79,300.1,52.732,268.583,34.005,245.037
			c-3.426-4.309-6.549-8.244-9.231-12.121l13.492,5.714c24.343,10.309,47.616,22.717,69.598,37.012
			C103.416,276.775,99.341,278.627,95.979,281.155z M400.766,403.242H286.041c-6.886,0-13.635-1.252-19.947-3.601h185.714
			C435.412,401.497,415.955,403.242,400.766,403.242z M496.13,383.823H243.073c-1.219-1.379-2.393-2.806-3.481-4.312
			C189.938,310.86,122.454,257.107,44.434,224.065L16.26,212.135c-2.509-35.833,5.703-71.075,23.862-102.207
			c0.627-1.077,1.994-1.487,3.108-0.931c33.46,16.623,65.568,35.371,96.218,56.15c17.857,21.177,39.667,48.411,64.851,80.983
			c40.247,52.054,75.454,81.587,107.63,90.289c7.227,1.954,13.969,2.765,20.26,2.765c18.802,0,33.57-7.251,45.136-12.928
			c0.27-0.133,0.528-0.257,0.796-0.388c24.453,7.102,48.538,15.521,72.016,25.207l29.959,12.361
			c6.714,2.77,12.037,7.95,14.99,14.586C495.919,379.887,496.256,381.869,496.13,383.823z"/>
	</g>
</g>
</svg>